<mxfile host="app.diagrams.net" modified="2021-11-21T05:04:06.517Z" agent="5.0 (X11; Linux x86_64) AppleWebKit/537.36 (KHTML, like Gecko) Chrome/95.0.4638.69 Safari/537.36" etag="WLxqmTNArv74zggz6PkL" version="14.8.1" type="github">
  <diagram id="mjgqmSHZGCYBxVDJmJig" name="Page-1">
    <mxGraphModel dx="1122" dy="579" grid="1" gridSize="10" guides="1" tooltips="1" connect="1" arrows="1" fold="1" page="1" pageScale="2" pageWidth="827" pageHeight="1169" math="0" shadow="0">
      <root>
        <mxCell id="0" />
        <mxCell id="1" parent="0" />
        <mxCell id="FAwiAq0qkd5cn3caJAeM-74" value="" style="rounded=0;whiteSpace=wrap;html=1;fontSize=25;align=right;fontStyle=0" parent="1" vertex="1">
          <mxGeometry x="230" y="280" width="141" height="120" as="geometry" />
        </mxCell>
        <mxCell id="FAwiAq0qkd5cn3caJAeM-2" value="" style="rounded=0;whiteSpace=wrap;html=1;fontSize=25;fontStyle=0" parent="1" vertex="1">
          <mxGeometry x="384.18" y="170" width="340" height="320" as="geometry" />
        </mxCell>
        <mxCell id="FAwiAq0qkd5cn3caJAeM-3" style="rounded=0;orthogonalLoop=1;jettySize=auto;html=1;exitX=0.5;exitY=1;exitDx=0;exitDy=0;entryX=0.228;entryY=0;entryDx=0;entryDy=0;entryPerimeter=0;fontSize=25;startArrow=blockThin;startFill=1;endArrow=classicThin;endFill=1;strokeWidth=1;fontStyle=0" parent="1" source="FAwiAq0qkd5cn3caJAeM-4" target="FAwiAq0qkd5cn3caJAeM-12" edge="1">
          <mxGeometry relative="1" as="geometry" />
        </mxCell>
        <mxCell id="FAwiAq0qkd5cn3caJAeM-4" value="" style="whiteSpace=wrap;html=1;aspect=fixed;fontStyle=0;fontSize=25;" parent="1" vertex="1">
          <mxGeometry x="404.18" y="190" width="130" height="130" as="geometry" />
        </mxCell>
        <mxCell id="FAwiAq0qkd5cn3caJAeM-5" value="L2" style="rounded=0;whiteSpace=wrap;html=1;fontSize=25;fillColor=#ffe6cc;strokeColor=#d79b00;fontStyle=0" parent="1" vertex="1">
          <mxGeometry x="414.18" y="270" width="110" height="30" as="geometry" />
        </mxCell>
        <mxCell id="FAwiAq0qkd5cn3caJAeM-6" value="&lt;font style=&quot;font-size: 25px;&quot;&gt;L1 D&lt;/font&gt;" style="rounded=0;whiteSpace=wrap;html=1;fontSize=25;fillColor=#ffe6cc;strokeColor=#d79b00;fontStyle=0" parent="1" vertex="1">
          <mxGeometry x="474.18" y="220" width="55.82" height="30" as="geometry" />
        </mxCell>
        <mxCell id="FAwiAq0qkd5cn3caJAeM-7" value="&lt;font style=&quot;font-size: 25px;&quot;&gt;L1 I&lt;/font&gt;" style="rounded=0;whiteSpace=wrap;html=1;fontSize=25;fillColor=#ffe6cc;strokeColor=#d79b00;fontStyle=0" parent="1" vertex="1">
          <mxGeometry x="414.18" y="220" width="50" height="30" as="geometry" />
        </mxCell>
        <mxCell id="FAwiAq0qkd5cn3caJAeM-8" value="" style="whiteSpace=wrap;html=1;aspect=fixed;fontStyle=0;fontSize=25;" parent="1" vertex="1">
          <mxGeometry x="564.1800000000001" y="190" width="130" height="130" as="geometry" />
        </mxCell>
        <mxCell id="FAwiAq0qkd5cn3caJAeM-9" value="L2" style="rounded=0;whiteSpace=wrap;html=1;fontSize=25;fillColor=#ffe6cc;strokeColor=#d79b00;fontStyle=0" parent="1" vertex="1">
          <mxGeometry x="574.1800000000001" y="270" width="110" height="30" as="geometry" />
        </mxCell>
        <mxCell id="FAwiAq0qkd5cn3caJAeM-10" value="&lt;font style=&quot;font-size: 25px;&quot;&gt;L1 D&lt;/font&gt;" style="rounded=0;whiteSpace=wrap;html=1;fontSize=25;fillColor=#ffe6cc;strokeColor=#d79b00;fontStyle=0" parent="1" vertex="1">
          <mxGeometry x="634.18" y="220" width="55.82" height="30" as="geometry" />
        </mxCell>
        <mxCell id="FAwiAq0qkd5cn3caJAeM-11" value="&lt;font style=&quot;font-size: 25px;&quot;&gt;L1 I&lt;/font&gt;" style="rounded=0;whiteSpace=wrap;html=1;fontSize=25;fillColor=#ffe6cc;strokeColor=#d79b00;fontStyle=0" parent="1" vertex="1">
          <mxGeometry x="574.1800000000001" y="220" width="50" height="30" as="geometry" />
        </mxCell>
        <mxCell id="FAwiAq0qkd5cn3caJAeM-12" value="LLC" style="rounded=0;whiteSpace=wrap;html=1;fontSize=25;fillColor=#ffe6cc;strokeColor=#d79b00;fontStyle=0" parent="1" vertex="1">
          <mxGeometry x="404.18" y="350" width="290" height="50" as="geometry" />
        </mxCell>
        <mxCell id="FAwiAq0qkd5cn3caJAeM-13" value="NVM" style="rounded=0;whiteSpace=wrap;html=1;fontSize=25;fillColor=#dae8fc;strokeColor=#6c8ebf;fontStyle=0" parent="1" vertex="1">
          <mxGeometry x="384.18" y="515" width="340" height="80" as="geometry" />
        </mxCell>
        <mxCell id="FAwiAq0qkd5cn3caJAeM-14" style="edgeStyle=none;rounded=0;orthogonalLoop=1;jettySize=auto;html=1;exitX=0.5;exitY=1;exitDx=0;exitDy=0;fontSize=25;startArrow=blockThin;startFill=1;endArrow=classicThin;endFill=1;strokeWidth=1;fontStyle=0" parent="1" source="FAwiAq0qkd5cn3caJAeM-15" edge="1">
          <mxGeometry relative="1" as="geometry">
            <mxPoint x="549.1800000000001" y="520" as="targetPoint" />
          </mxGeometry>
        </mxCell>
        <mxCell id="FAwiAq0qkd5cn3caJAeM-15" value="MC" style="rounded=0;whiteSpace=wrap;html=1;fontSize=25;fillColor=#dae8fc;strokeColor=#6c8ebf;fontStyle=0" parent="1" vertex="1">
          <mxGeometry x="404.18" y="430" width="290" height="40" as="geometry" />
        </mxCell>
        <mxCell id="FAwiAq0qkd5cn3caJAeM-16" value="WPQ" style="rounded=0;whiteSpace=wrap;html=1;fontSize=25;fillColor=#f8cecc;strokeColor=#b85450;fontStyle=0" parent="1" vertex="1">
          <mxGeometry x="594.1800000000001" y="440" width="90" height="20" as="geometry" />
        </mxCell>
        <mxCell id="FAwiAq0qkd5cn3caJAeM-17" style="rounded=0;orthogonalLoop=1;jettySize=auto;html=1;exitX=0.5;exitY=1;exitDx=0;exitDy=0;entryX=0.228;entryY=0;entryDx=0;entryDy=0;entryPerimeter=0;fontSize=25;startArrow=blockThin;startFill=1;endArrow=classicThin;endFill=1;strokeWidth=1;fontStyle=0" parent="1" edge="1">
          <mxGeometry relative="1" as="geometry">
            <mxPoint x="628.6200000000001" y="320" as="sourcePoint" />
            <mxPoint x="629.74" y="350" as="targetPoint" />
          </mxGeometry>
        </mxCell>
        <mxCell id="FAwiAq0qkd5cn3caJAeM-18" style="rounded=0;orthogonalLoop=1;jettySize=auto;html=1;exitX=0.5;exitY=1;exitDx=0;exitDy=0;entryX=0.228;entryY=0;entryDx=0;entryDy=0;entryPerimeter=0;fontSize=25;startArrow=blockThin;startFill=1;endArrow=classicThin;endFill=1;strokeWidth=1;fontStyle=0" parent="1" edge="1">
          <mxGeometry relative="1" as="geometry">
            <mxPoint x="548.1800000000001" y="400" as="sourcePoint" />
            <mxPoint x="549.3" y="430" as="targetPoint" />
          </mxGeometry>
        </mxCell>
        <mxCell id="FAwiAq0qkd5cn3caJAeM-64" value="Store (A,1)" style="text;html=1;strokeColor=none;fillColor=none;align=center;verticalAlign=middle;whiteSpace=wrap;rounded=0;fontSize=25;fontStyle=0" parent="1" vertex="1">
          <mxGeometry x="229" y="300" width="140" height="20" as="geometry" />
        </mxCell>
        <mxCell id="FAwiAq0qkd5cn3caJAeM-65" value="Store (B,1)" style="text;html=1;strokeColor=none;fillColor=none;align=center;verticalAlign=middle;whiteSpace=wrap;rounded=0;fontSize=25;fontStyle=0" parent="1" vertex="1">
          <mxGeometry x="225" y="338" width="146" height="20" as="geometry" />
        </mxCell>
        <mxCell id="FAwiAq0qkd5cn3caJAeM-75" value="1" style="rounded=0;whiteSpace=wrap;html=1;fontSize=25;align=center;fontStyle=0" parent="1" vertex="1">
          <mxGeometry x="438.18" y="540" width="40" height="20" as="geometry" />
        </mxCell>
        <mxCell id="FAwiAq0qkd5cn3caJAeM-76" value="1" style="rounded=0;whiteSpace=wrap;html=1;fontSize=25;align=center;fontStyle=0" parent="1" vertex="1">
          <mxGeometry x="449.18" y="365" width="40" height="20" as="geometry" />
        </mxCell>
        <mxCell id="FAwiAq0qkd5cn3caJAeM-77" value="A" style="text;html=1;strokeColor=none;fillColor=none;align=center;verticalAlign=middle;whiteSpace=wrap;rounded=0;fontSize=25;fontStyle=0" parent="1" vertex="1">
          <mxGeometry x="419.18" y="365" width="40" height="20" as="geometry" />
        </mxCell>
        <mxCell id="FAwiAq0qkd5cn3caJAeM-78" value="B" style="text;html=1;strokeColor=none;fillColor=none;align=center;verticalAlign=middle;whiteSpace=wrap;rounded=0;fontSize=25;fontStyle=0" parent="1" vertex="1">
          <mxGeometry x="408.18" y="540" width="40" height="20" as="geometry" />
        </mxCell>
        <mxCell id="FAwiAq0qkd5cn3caJAeM-105" value="" style="verticalLabelPosition=bottom;verticalAlign=top;html=1;shape=mxgraph.basic.8_point_star;fontSize=25;align=center;strokeColor=#B20000;fontStyle=0;fillColor=#FF9999;" parent="1" vertex="1">
          <mxGeometry x="653.18" y="297" width="101.82" height="90" as="geometry" />
        </mxCell>
        <mxCell id="FAwiAq0qkd5cn3caJAeM-106" value="crash" style="text;html=1;strokeColor=none;fillColor=none;align=center;verticalAlign=middle;whiteSpace=wrap;rounded=0;fontSize=25;fontStyle=0" parent="1" vertex="1">
          <mxGeometry x="681.0000000000001" y="331" width="40" height="20" as="geometry" />
        </mxCell>
        <mxCell id="FAwiAq0qkd5cn3caJAeM-139" value=".&lt;br style=&quot;font-size: 25px;&quot;&gt;." style="text;html=1;strokeColor=none;fillColor=none;align=center;verticalAlign=middle;whiteSpace=wrap;rounded=0;fontSize=25;fontStyle=0" parent="1" vertex="1">
          <mxGeometry x="261" y="370" width="90" height="20" as="geometry" />
        </mxCell>
        <mxCell id="FAwiAq0qkd5cn3caJAeM-141" value="" style="html=1;shadow=0;dashed=0;align=center;verticalAlign=middle;shape=mxgraph.arrows2.arrow;dy=0.67;dx=20;notch=0;fontSize=25;fontColor=#FFFFFF;fillColor=#0000FF;fontStyle=0" parent="1" vertex="1">
          <mxGeometry x="357" y="354" width="45" height="10" as="geometry" />
        </mxCell>
        <mxCell id="CRLOc1WB8V-iHWx_uGIP-9" value="" style="rounded=0;whiteSpace=wrap;html=1;fontSize=25;strokeWidth=2;strokeColor=#666666;fontColor=#333333;fontStyle=0;fillColor=none;dashed=1;" parent="1" vertex="1">
          <mxGeometry x="383" y="409" width="385" height="210" as="geometry" />
        </mxCell>
        <mxCell id="rw0pJkleUwbmweoXINBP-2" value="persistent domain" style="text;html=1;strokeColor=none;fillColor=none;align=center;verticalAlign=middle;whiteSpace=wrap;rounded=0;fontSize=25;rotation=270;fontStyle=0;fontFamily=Helvetica;" parent="1" vertex="1">
          <mxGeometry x="627.87" y="500.5" width="226.63" height="20" as="geometry" />
        </mxCell>
      </root>
    </mxGraphModel>
  </diagram>
</mxfile>
